<svg width="720" height="200" viewBox="0 0 720 200" fill="none" xmlns="http://www.w3.org/2000/svg">
  <rect width="720" height="200" rx="28" fill="#0F172A"/>
  <rect x="24" y="24" width="672" height="152" rx="24" fill="#111827" stroke="#1F2937" stroke-width="2"/>
  <circle cx="122" cy="100" r="48" fill="#0B1220" stroke="#34D399" stroke-width="10"/>
  <circle cx="122" cy="100" r="21" fill="#34D399"/>
  <path d="M82 100C82 77.9086 99.9086 60 122 60" stroke="#F59E0B" stroke-width="10" stroke-linecap="round"/>
  <path d="M162 100C162 122.091 144.091 140 122 140" stroke="#38BDF8" stroke-width="10" stroke-linecap="round"/>
  <path d="M191 136L228 64" stroke="#38BDF8" stroke-width="12" stroke-linecap="round"/>
  <path d="M228 64H266C293.614 64 316 86.3858 316 114V136" stroke="#38BDF8" stroke-width="12" stroke-linecap="round" stroke-linejoin="round"/>
  <path d="M228 136H286" stroke="#F59E0B" stroke-width="12" stroke-linecap="round"/>
  <text x="344" y="88" fill="#F8FAFC" font-family="Inter, Segoe UI, Arial, sans-serif" font-size="34" font-weight="700">go-opencv</text>
  <text x="344" y="123" fill="#94A3B8" font-family="Inter, Segoe UI, Arial, sans-serif" font-size="18" font-weight="500">CGO-free OpenCV for Go with embedded native runtimes</text>
  <rect x="344" y="140" width="118" height="26" rx="13" fill="#0B1220" stroke="#233044"/>
  <text x="365" y="158" fill="#34D399" font-family="Inter, Segoe UI, Arial, sans-serif" font-size="14" font-weight="700">PUREGO</text>
  <rect x="474" y="140" width="156" height="26" rx="13" fill="#0B1220" stroke="#233044"/>
  <text x="496" y="158" fill="#38BDF8" font-family="Inter, Segoe UI, Arial, sans-serif" font-size="14" font-weight="700">UNIVERSAL MACOS</text>
</svg>
